<svg width="44" height="33" viewBox="0 0 44 33" fill="none" xmlns="http://www.w3.org/2000/svg">
<path fill-rule="evenodd" clip-rule="evenodd" d="M17.2859 32.0666C16.7638 32.1188 16.2393 32.145 15.7145 32.145C11.5467 32.145 7.54957 30.4967 4.60249 27.5627C1.65541 24.6287 -0.000244141 20.6494 -0.000244141 16.5001C-0.000244141 12.3508 1.65541 8.37149 4.60249 5.4375C7.54957 2.50352 11.5467 0.855225 15.7145 0.855225C16.2393 0.855225 16.7638 0.881398 17.2859 0.933646V5.62711C16.7647 5.56366 16.2395 5.53745 15.7145 5.54869C12.797 5.54869 9.99904 6.7025 7.93609 8.75629C5.87313 10.8101 4.71417 13.5956 4.71417 16.5001C4.71417 19.4046 5.87313 22.1901 7.93609 24.2439C9.99904 26.2977 12.797 27.4515 15.7145 27.4515C16.2395 27.4628 16.7647 27.4366 17.2859 27.3731V32.0666Z" fill="white"/>
<path fill-rule="evenodd" clip-rule="evenodd" d="M43.9997 32.0666C43.4775 32.1188 42.953 32.145 42.4282 32.145C38.2604 32.145 34.2633 30.4967 31.3162 27.5627C28.3692 24.6287 26.7135 20.6494 26.7135 16.5001C26.7135 12.3508 28.3692 8.37149 31.3162 5.4375C34.2633 2.50352 38.2604 0.855225 42.4282 0.855225C42.953 0.855225 43.4775 0.881398 43.9997 0.933646V5.62711C43.4784 5.56366 42.9533 5.53745 42.4282 5.54869C39.9201 5.54848 37.4872 6.40157 35.5329 7.96655C33.5785 9.53153 32.22 11.7144 31.6825 14.1534H40.8568V18.8468H31.6825C32.22 21.2858 33.5785 23.4687 35.5329 25.0337C37.4872 26.5986 39.9201 27.4517 42.4282 27.4515C42.9533 27.4628 43.4784 27.4366 43.9997 27.3731V32.0666Z" fill="white"/>
</svg>
