<svg width="31" height="31" viewBox="0 0 31 31" fill="none" xmlns="http://www.w3.org/2000/svg">
<mask id="path-1-outside-1_1:26" maskUnits="userSpaceOnUse" x="-0.000244141" y="0" width="31" height="32" fill="black">
<rect fill="white" x="-0.000244141" width="31" height="32"/>
<path fill-rule="evenodd" clip-rule="evenodd" d="M16.2069 24.9071L22.5708 18.5431C22.9613 18.1526 22.9613 17.5195 22.5708 17.1289C22.1803 16.7384 21.5471 16.7384 21.1566 17.1289L16.4998 21.7858L16.4998 1H14.4998L14.4998 21.7858L9.8429 17.1289C9.45238 16.7384 8.81921 16.7384 8.42869 17.1289C8.03816 17.5195 8.03816 18.1526 8.42869 18.5431L14.7926 24.9071C15.1832 25.2976 15.8163 25.2976 16.2069 24.9071ZM0.999756 26.0001V17.6751H2.99976V26.0001C2.99976 27.1047 3.89519 28.0001 4.99976 28.0001H25.9998C27.1043 28.0001 27.9998 27.1047 27.9998 26.0001V17.6751H29.9998V26.0001C29.9998 28.2093 28.2089 30.0001 25.9998 30.0001H4.99976C2.79062 30.0001 0.999756 28.2093 0.999756 26.0001Z"/>
</mask>
<path fill-rule="evenodd" clip-rule="evenodd" d="M16.2069 24.9071L22.5708 18.5431C22.9613 18.1526 22.9613 17.5195 22.5708 17.1289C22.1803 16.7384 21.5471 16.7384 21.1566 17.1289L16.4998 21.7858L16.4998 1H14.4998L14.4998 21.7858L9.8429 17.1289C9.45238 16.7384 8.81921 16.7384 8.42869 17.1289C8.03816 17.5195 8.03816 18.1526 8.42869 18.5431L14.7926 24.9071C15.1832 25.2976 15.8163 25.2976 16.2069 24.9071ZM0.999756 26.0001V17.6751H2.99976V26.0001C2.99976 27.1047 3.89519 28.0001 4.99976 28.0001H25.9998C27.1043 28.0001 27.9998 27.1047 27.9998 26.0001V17.6751H29.9998V26.0001C29.9998 28.2093 28.2089 30.0001 25.9998 30.0001H4.99976C2.79062 30.0001 0.999756 28.2093 0.999756 26.0001Z" fill="white"/>
<path d="M22.5708 17.1289L23.2779 16.4218L23.2779 16.4218L22.5708 17.1289ZM21.1566 17.1289L20.4495 16.4218L20.4495 16.4218L21.1566 17.1289ZM16.4998 21.7858H15.4998V24.2L17.2069 22.4929L16.4998 21.7858ZM16.4998 1L17.4998 1V0H16.4998V1ZM14.4998 1V0H13.4998V1L14.4998 1ZM14.4998 21.7858L13.7926 22.4929L15.4998 24.2V21.7858H14.4998ZM9.8429 17.1289L10.55 16.4218L10.55 16.4218L9.8429 17.1289ZM8.42869 18.5431L9.13579 17.836L8.42869 18.5431ZM14.7926 24.9071L14.0855 25.6142L14.7926 24.9071ZM0.999756 17.6751V16.6751H-0.000244141V17.6751H0.999756ZM2.99976 17.6751H3.99976V16.6751H2.99976V17.6751ZM27.9998 17.6751V16.6751H26.9998V17.6751H27.9998ZM29.9998 17.6751H30.9998V16.6751H29.9998V17.6751ZM21.8637 17.836L15.4998 24.2L16.914 25.6142L23.2779 19.2503L21.8637 17.836ZM21.8637 17.836V17.836L23.2779 19.2503C24.059 18.4692 24.059 17.2029 23.2779 16.4218L21.8637 17.836ZM21.8637 17.836H21.8637L23.2779 16.4218C22.4969 15.6408 21.2306 15.6408 20.4495 16.4218L21.8637 17.836ZM17.2069 22.4929L21.8637 17.836L20.4495 16.4218L15.7926 21.0787L17.2069 22.4929ZM15.4998 1L15.4998 21.7858H17.4998V1L15.4998 1ZM14.4998 2H16.4998V0H14.4998V2ZM15.4998 21.7858L15.4998 1L13.4998 1L13.4998 21.7858H15.4998ZM9.13579 17.836L13.7926 22.4929L15.2069 21.0787L10.55 16.4218L9.13579 17.836ZM9.13579 17.836H9.1358L10.55 16.4218C9.76896 15.6408 8.50263 15.6408 7.72158 16.4218L9.13579 17.836ZM9.13579 17.836V17.836L7.72158 16.4218C6.94053 17.2029 6.94053 18.4692 7.72158 19.2503L9.13579 17.836ZM15.4998 24.2L9.13579 17.836L7.72158 19.2503L14.0855 25.6142L15.4998 24.2ZM15.4998 24.2L14.0855 25.6142C14.8666 26.3953 16.1329 26.3953 16.914 25.6142L15.4998 24.2ZM-0.000244141 17.6751V26.0001H1.99976V17.6751H-0.000244141ZM2.99976 16.6751H0.999756V18.6751H2.99976V16.6751ZM3.99976 26.0001V17.6751H1.99976V26.0001H3.99976ZM4.99976 27.0001C4.44747 27.0001 3.99976 26.5524 3.99976 26.0001H1.99976C1.99976 27.657 3.3429 29.0001 4.99976 29.0001V27.0001ZM25.9998 27.0001H4.99976V29.0001H25.9998V27.0001ZM26.9998 26.0001C26.9998 26.5524 26.552 27.0001 25.9998 27.0001V29.0001C27.6566 29.0001 28.9998 27.657 28.9998 26.0001H26.9998ZM26.9998 17.6751V26.0001H28.9998V17.6751H26.9998ZM29.9998 16.6751H27.9998V18.6751H29.9998V16.6751ZM30.9998 26.0001V17.6751H28.9998V26.0001H30.9998ZM25.9998 31.0001C28.7612 31.0001 30.9998 28.7615 30.9998 26.0001H28.9998C28.9998 27.657 27.6566 29.0001 25.9998 29.0001V31.0001ZM4.99976 31.0001H25.9998V29.0001H4.99976V31.0001ZM-0.000244141 26.0001C-0.000244141 28.7615 2.23833 31.0001 4.99976 31.0001V29.0001C3.3429 29.0001 1.99976 27.657 1.99976 26.0001H-0.000244141Z" fill="white" mask="url(#path-1-outside-1_1:26)"/>
</svg>
